<svg width="366" height="366" viewBox="0 0 366 366" fill="none" xmlns="http://www.w3.org/2000/svg">
<path d="M316.543 117.643C316.543 116.334 316.543 115.679 316.52 115.126C315.945 101.393 304.939 90.4019 291.223 89.8618C290.671 89.8401 290.017 89.8418 288.71 89.8452L117.641 90.2957C104.869 90.3294 98.4825 90.3462 93.3207 92.694C88.7711 94.7635 84.9027 98.0854 82.1667 102.272C79.0626 107.023 78.0726 113.34 76.0926 125.975L48.4551 302.34C46.5946 314.212 36.3793 322.961 24.3776 322.961C9.38463 322.961 -2.05328 309.535 0.310355 294.709L34.611 79.5688C36.6245 66.9394 37.6313 60.6247 40.7479 55.8828C43.4949 51.7031 47.372 48.3915 51.927 46.3342C57.0948 44 63.4809 44 76.2532 44H321.521C338.526 44 347.028 44 353.098 47.4675C358.426 50.5108 362.527 55.3195 364.695 61.065C367.164 67.6116 365.833 76.0202 363.17 92.8374L357.604 127.994C356.013 138.042 347.361 145.44 337.201 145.44C325.792 145.44 316.543 136.179 316.543 124.755V117.643Z" fill="#FFDEA4"/>
<path fill-rule="evenodd" clip-rule="evenodd" d="M272.343 108.019H289.407C297.419 108.022 303.57 115.126 302.443 123.07L275.701 311.66C274.775 318.175 269.199 323.016 262.626 323L94.3881 322.523H77.3365C69.3223 322.523 63.1612 315.417 64.2872 307.472L93.8476 118.998C94.7728 112.483 100.351 107.644 106.923 107.658L272.343 108.019ZM134.874 145.531C132.45 145.531 130.386 147.295 130.01 149.693L109.78 278.53C109.236 281.993 111.915 285.127 115.416 285.127L176.57 285.14C221.518 285.143 257.967 248.654 257.968 203.648C257.968 171.553 231.98 145.534 199.928 145.531H134.874Z" fill="#FFDEA4"/>
</svg>
